<svg xmlns="http://www.w3.org/2000/svg" width="64" height="64" viewBox="0 0 64 64" fill="none">
  <defs>
    <linearGradient id="tendly-bg" x1="0" y1="0" x2="64" y2="64" gradientUnits="userSpaceOnUse">
      <stop stop-color="#4696e5"/>
      <stop offset="1" stop-color="#3d6f51"/>
    </linearGradient>
  </defs>
  <rect width="64" height="64" rx="16" fill="url(#tendly-bg)"/>
  <g transform="translate(13 14)" stroke="#ffffff" stroke-width="3.4" stroke-linecap="round" stroke-linejoin="round" fill="none">
    <path d="M31.7 20.3C34 18 36 15.4 36 12.1A8.6 8.6 0 0 0 27.4 3.5c-2.75 0-4.7.8-7.05 3.15C18 4.3 16.05 3.5 13.3 3.5A8.6 8.6 0 0 0 4.7 12.1c0 3.3 2 5.9 4.3 8.2l10.35 10.35Z"/>
    <path d="M5.5 17.5h7l2.3-3.8 3.1 6.2 2.3-3.8h6.3"/>
  </g>
</svg>
